# Blender v2.66 (sub 0) OBJ File: 'cube_50mm.blend'
# www.blender.org
mtllib cube_50mm.mtl
o Cube
v 50.000000 -50.000000 -49.999996
v 50.000000 -50.000000 50.000000
v -50.000008 -50.000000 49.999992
v -49.999981 -50.000000 -50.000019
v 50.000023 50.000000 -49.999973
v 49.999966 50.000000 50.000031
v -50.000019 50.000000 49.999981
v -49.999996 50.000000 -50.000000
vt 0.000000 0.000000
vt 1.000000 0.000000
vt 1.000000 1.000000
vt 0.000000 1.000000
vn 0.000000 -1.000000 0.000000
vn 0.000000 1.000000 0.000000
vn 1.000000 0.000000 0.000000
vn -0.000000 -0.000000 1.000000
vn -1.000000 -0.000000 -0.000000
vn 0.000000 0.000000 -1.000000
usemtl Material
s off
f 1/1/1 2/2/1 3/3/1 4/4/1
f 5/1/2 8/2/2 7/3/2 6/4/2
f 1/1/3 5/2/3 6/3/3 2/4/3
f 2/1/4 6/2/4 7/3/4 3/4/4
f 3/1/5 7/2/5 8/3/5 4/4/5
f 5/1/6 1/2/6 4/3/6 8/4/6
